<svg width="215" height="78" viewBox="0 0 215 78" fill="none" xmlns="http://www.w3.org/2000/svg">
<path d="M0 8.87423V0.759294H40.6222L0 8.87423ZM40.6222 0.759294V8.92169H25.3414V35.8766H15.4706V8.92169H0V0.759294H40.6222Z" fill="white"/>
<path d="M64.148 0C68.3874 0 72.1997 0.806748 75.5848 2.42024C78.97 4.0021 81.6275 6.20089 83.5574 9.0166C85.4873 11.8007 86.4522 14.9486 86.4522 18.4603C86.4522 21.9404 85.4873 25.0725 83.5574 27.8565C81.6275 30.6406 78.97 32.8394 75.5848 34.4529C72.1997 36.0348 68.3874 36.8257 64.148 36.8257C60.0668 36.8257 56.302 36.0348 52.8535 34.4529C49.4367 32.8394 46.7159 30.6406 44.6911 27.8565C42.6663 25.0408 41.6539 21.9088 41.6539 18.4603C41.6539 14.9802 42.6505 11.8323 44.6437 9.0166C46.6684 6.20089 49.4051 4.0021 52.8535 2.42024C56.302 0.806748 60.0668 0 64.148 0ZM64.148 29.0904C66.2044 29.0904 68.1501 28.6791 69.985 27.8565C71.82 27.0023 73.307 25.7843 74.4459 24.2025C75.5848 22.589 76.1543 20.6749 76.1543 18.4603C76.1543 16.2773 75.5848 14.3791 74.4459 12.7656C73.307 11.1205 71.82 9.8708 69.985 9.0166C68.1501 8.16239 66.2044 7.73529 64.148 7.73529C62.0283 7.73529 60.0351 8.16239 58.1686 9.0166C56.3336 9.83917 54.8625 11.0572 53.7552 12.6707C52.6479 14.2842 52.0942 16.1824 52.0942 18.3654C52.0942 20.58 52.6479 22.5099 53.7552 24.155C54.8941 25.7685 56.3811 27.0023 58.216 27.8565C60.0826 28.6791 62.0599 29.0904 64.148 29.0904Z" fill="white"/>
<path d="M88.0064 8.87423V0.759294H128.629L88.0064 8.87423ZM128.629 0.759294V8.92169H113.348V35.8766H103.477V8.92169H88.0064V0.759294H128.629Z" fill="white"/>
<path d="M142.244 13.5249H163.124V0.759294H172.995V35.8766H163.124V21.5449H142.244V35.8766H132.42V0.759294H142.244V13.5249Z" fill="white"/>
<path d="M210.304 21.5449H187.336V28.5684L214.291 28.3786V35.8766H177.512V0.759294H214.291L214.338 8.20985H187.336V14.1893H210.304V21.5449Z" fill="white"/>
<path d="M58.3206 42.7593H68.9981L52.1513 63.1178V77.8766H41.4738V63.1653L24.627 42.7593H35.3045L46.599 56.5215L58.3206 42.7593Z" fill="white"/>
<path d="M104.016 77.8766H93.9076L90.2535 71.1379H69.2306L65.5765 77.8766H55.4684L74.5456 42.7593H84.9859L104.016 77.8766ZM79.7658 51.7284L73.1219 63.9246H86.3621L79.7658 51.7284Z" fill="white"/>
<path d="M134.818 77.8291L125.089 66.4872H115.171V77.8291H105.68V42.7118H131.354C134.296 42.7118 136.89 43.2022 139.136 44.183C141.414 45.1637 143.17 46.5399 144.404 48.3116C145.669 50.0517 146.302 52.0764 146.302 54.386V54.5758C146.302 57.5813 145.416 60.0648 143.645 62.0263C141.905 63.9879 139.484 65.3008 136.384 65.9652L146.587 77.8291H134.818ZM136.763 54.6707C136.763 53.1521 136.463 52.0448 135.862 51.3488C135.261 50.6528 134.486 50.2257 133.536 50.0675C132.587 49.9093 131.243 49.8302 129.503 49.8302C128.743 49.8302 128.095 49.846 127.557 49.8777C124.963 49.9409 120.834 49.9726 115.171 49.9726V59.2264H129.503C131.243 59.2264 132.587 59.1632 133.536 59.0366C134.486 58.8784 135.261 58.4672 135.862 57.8028C136.463 57.1384 136.763 56.0944 136.763 54.6707Z" fill="white"/>
<path d="M188.802 60.3654C188.802 63.6873 187.948 66.677 186.239 69.3345C184.563 71.9921 182.158 74.0801 179.026 75.5987C175.894 77.1173 172.272 77.8766 168.159 77.8766V77.924H158.051V77.8766H150.031V42.7593H168.111C172.256 42.7593 175.894 43.5186 179.026 45.0372C182.158 46.5558 184.563 48.6438 186.239 51.3013C187.948 53.9589 188.802 56.9802 188.802 60.3654ZM168.586 69.6667C171.623 69.6667 174.122 68.8758 176.084 67.2939C178.077 65.7121 179.074 63.4026 179.074 60.3654C179.074 58.657 178.599 57.0909 177.65 55.6673C176.701 54.212 175.42 53.073 173.806 52.2505C172.224 51.3962 170.484 50.9691 168.586 50.9691H159.854V69.6667H168.586Z" fill="white"/>
</svg>
